<svg width="31" height="28" viewBox="0 0 31 28" fill="none" xmlns="http://www.w3.org/2000/svg">
<path d="M14.3206 16.6786H17.017C17.7321 16.6786 18.418 16.3946 18.9236 15.8889C19.4293 15.3832 19.7134 14.6974 19.7134 13.9823C19.7134 13.2671 19.4293 12.5813 18.9236 12.0756C18.418 11.57 17.7321 11.2859 17.017 11.2859H12.9725C12.1635 11.2859 11.4895 11.5555 11.085 12.0948L3.53516 19.375" stroke="#BF5AF2" stroke-width="2.69637" stroke-linecap="round" stroke-linejoin="round"/>
<path d="M8.92843 24.7674L11.0855 22.8799C11.49 22.3406 12.1641 22.071 12.973 22.071H18.3657C19.8487 22.071 21.1969 21.5317 22.1406 20.4532L28.3423 14.5212C28.8626 14.0295 29.1662 13.3513 29.1864 12.6358C29.2066 11.9203 28.9418 11.226 28.4502 10.7058C27.9585 10.1855 27.2803 9.8819 26.5648 9.86167C25.8493 9.84145 25.155 10.1063 24.6348 10.5979L18.9724 15.8559M2.1875 18.0264L10.2766 26.1156" stroke="#BF5AF2" stroke-width="2.69637" stroke-linecap="round" stroke-linejoin="round"/>
<path d="M25.7801 9.26356C26.7239 8.31983 27.8024 7.10647 27.8024 5.62346C27.8966 4.79962 27.7099 3.9681 27.2725 3.26365C26.8351 2.5592 26.1726 2.0231 25.3924 1.74222C24.6122 1.46135 23.76 1.45217 22.9739 1.71617C22.1879 1.98016 21.514 2.50186 21.0615 3.19673C20.5802 2.55577 19.9061 2.08599 19.1382 1.85634C18.3703 1.62668 17.549 1.64926 16.7949 1.92075C16.0407 2.19224 15.3935 2.69835 14.9481 3.36477C14.5028 4.03119 14.2829 4.82283 14.3206 5.62346C14.3206 7.24128 15.3991 8.31983 16.3428 9.39838L21.0615 13.9822L25.7801 9.26356Z" stroke="#BF5AF2" stroke-width="2.69637" stroke-linecap="round" stroke-linejoin="round"/>
</svg>
