<svg width="24" height="24" viewBox="0 0 24 24" fill="none" xmlns="http://www.w3.org/2000/svg">
<path d="M9 12C9 11.7348 9.10536 11.4804 9.29289 11.2929C9.48043 11.1054 9.73478 11 10 11H11V10C11 9.73478 11.1054 9.48043 11.2929 9.29289C11.4804 9.10536 11.7348 9 12 9C12.2652 9 12.5196 9.10536 12.7071 9.29289C12.8946 9.48043 13 9.73478 13 10V11H14C14.2652 11 14.5196 11.1054 14.7071 11.2929C14.8946 11.4804 15 11.7348 15 12C15 12.2652 14.8946 12.5196 14.7071 12.7071C14.5196 12.8946 14.2652 13 14 13H13V14C13 14.2652 12.8946 14.5196 12.7071 14.7071C12.5196 14.8946 12.2652 15 12 15C11.7348 15 11.4804 14.8946 11.2929 14.7071C11.1054 14.5196 11 14.2652 11 14V13H10C9.73478 13 9.48043 12.8946 9.29289 12.7071C9.10536 12.5196 9 12.2652 9 12Z" fill="#1C1C1E"/>
<path fill-rule="evenodd" clip-rule="evenodd" d="M3.13889 6.74205C5.82683 5.16858 8.88528 4.33923 11.9999 4.33923C15.1145 4.33923 18.173 5.16858 20.8609 6.74205C21.2412 6.96562 21.5349 7.31094 21.6946 7.72215C21.8543 8.13336 21.8706 8.58642 21.7409 9.00805L19.1709 17.5751C19.0473 17.9867 18.7944 18.3476 18.4497 18.6043C18.1049 18.8609 17.6867 18.9997 17.2569 19.0001H6.74389C6.31375 19.0001 5.89504 18.8616 5.5499 18.6049C5.20475 18.3482 4.95156 17.987 4.82789 17.5751L2.25789 9.00805C2.12826 8.58631 2.14472 8.13317 2.3046 7.72195C2.46448 7.31072 2.75843 6.96547 3.13889 6.74205ZM4.17889 8.45105L6.74389 17.0001H17.2559L19.8209 8.45005C17.4464 7.06712 14.7477 6.33851 11.9999 6.33851C9.25206 6.33851 6.55336 7.06712 4.17889 8.45005" fill="#1C1C1E"/>
</svg>
