<svg width="31" height="30" viewBox="0 0 31 30" fill="none" xmlns="http://www.w3.org/2000/svg">
<path d="M15.3329 9.67501V15.675M17.2021 2.18819L19.0335 3.74894C19.4949 4.14214 20.0678 4.37986 20.6721 4.42809L23.0707 4.61924C24.4809 4.73178 25.601 5.85119 25.7136 7.26139L25.9043 9.66035C25.9525 10.2647 26.1911 10.8384 26.5843 11.2998L28.1443 13.1307C29.0619 14.2075 29.062 15.7913 28.1445 16.868L26.5844 18.6993C26.1912 19.1607 25.9529 19.7346 25.9047 20.3389L25.7128 22.7375C25.6003 24.1477 24.4819 25.2678 23.0717 25.3803L20.6723 25.5718C20.068 25.62 19.4945 25.8571 19.0331 26.2503L17.2021 27.8111C16.1253 28.7287 14.5405 28.7289 13.4638 27.8113L11.6327 26.2504C11.1713 25.8572 10.5979 25.6197 9.99358 25.5715L7.59417 25.3803C6.18397 25.2678 5.06559 24.1479 4.95305 22.7378L4.76116 20.3391C4.71294 19.7348 4.47468 19.1613 4.08147 18.6999L2.52141 16.8681C1.60383 15.7914 1.6034 14.208 2.52098 13.1313L4.08245 11.2995C4.47565 10.8381 4.71162 10.2647 4.75984 9.66036L4.95173 7.26168C5.06427 5.85148 6.18588 4.73163 7.59608 4.6191L9.99284 4.42794C10.5971 4.37971 11.1709 4.14219 11.6323 3.74898L13.464 2.18819C14.5407 1.2706 16.1253 1.2706 17.2021 2.18819ZM15.4076 20.175V20.325L15.2582 20.3244V20.175H15.4076Z" stroke="#FF0D00" stroke-width="3" stroke-linecap="round" stroke-linejoin="round"/>
</svg>
