<svg width="24" height="24" viewBox="0 0 24 24" fill="none" xmlns="http://www.w3.org/2000/svg">
<rect width="24" height="24" rx="2" fill="#FFD60A"/>
<path d="M12.2849 17.5684L9.3788 15.4069C9.20268 15.2788 9.05057 15.1145 8.92248 14.914C8.79438 14.7136 8.70632 14.5016 8.65829 14.2781L7.57751 9.49863L5.464 11.3239L6.04041 14.0139C6.10446 14.2861 6.06059 14.5342 5.9088 14.7584C5.75701 14.9826 5.5447 15.1187 5.27186 15.1667C4.99902 15.2147 4.75085 15.1667 4.52733 15.0226C4.30381 14.8785 4.16771 14.6703 4.11903 14.3981L3.56664 11.7322C3.48658 11.396 3.50259 11.0639 3.61467 10.736C3.72675 10.4081 3.91088 10.1317 4.16707 9.90692L7.62555 6.83272C7.99381 6.51249 8.42996 6.38023 8.93401 6.43595C9.43805 6.49167 9.92255 6.61592 10.3875 6.8087C10.8999 7.03286 11.4324 7.19297 11.9852 7.28904C12.5379 7.38511 13.0941 7.39312 13.6539 7.31306C14.0381 7.24901 14.4064 7.13693 14.7587 6.97682C15.1109 6.8167 15.4472 6.62457 15.7674 6.4004C15.9915 6.24029 16.2359 6.1724 16.5004 6.19674C16.7649 6.22108 16.9849 6.337 17.1604 6.54451C17.3359 6.75202 17.4041 6.98835 17.365 7.2535C17.3259 7.51865 17.1937 7.73064 16.9682 7.88947C16.6 8.14566 16.2237 8.37398 15.8394 8.57444C15.4552 8.77491 15.0469 8.93886 14.6146 9.06632C14.0862 9.21042 13.554 9.28663 13.0179 9.29496C12.4818 9.30329 11.9493 9.24308 11.4203 9.11435L12.0927 12.0925L14.8547 11.5641C15.1109 11.5161 15.3633 11.5199 15.6118 11.5756C15.8602 11.6314 16.0963 11.7396 16.3198 11.9003L19.8503 14.3981C20.0745 14.5583 20.2067 14.7706 20.2471 15.0351C20.2874 15.2996 20.2192 15.5436 20.0424 15.7671C19.8823 15.9753 19.678 16.0995 19.4295 16.1399C19.181 16.1802 18.945 16.128 18.7215 15.9833L15.3591 13.6296L11.9006 14.3021L13.5338 15.5029C13.822 15.7271 14.0343 16.0073 14.1707 16.3435C14.3071 16.6798 14.343 17.032 14.2783 17.4003L13.6058 21.0989C13.5578 21.3711 13.4217 21.5834 13.1975 21.7359C12.9734 21.8883 12.7252 21.9402 12.453 21.8915C12.1808 21.8428 11.9727 21.7067 11.8286 21.4832C11.6845 21.2597 11.6364 21.0115 11.6845 20.7387L12.2849 17.5684ZM8.15393 5.75194C7.62555 5.75194 7.17338 5.56397 6.79743 5.18802C6.42148 4.81207 6.23319 4.35958 6.23255 3.83056C6.23191 3.30154 6.4202 2.84938 6.79743 2.47407C7.17466 2.09876 7.62683 1.91047 8.15393 1.90919C8.68102 1.90791 9.13351 2.0962 9.51138 2.47407C9.88925 2.85194 10.0772 3.30411 10.0753 3.83056C10.0734 4.35702 9.88541 4.8095 9.51138 5.18802C9.13735 5.56653 8.68487 5.7545 8.15393 5.75194Z" fill="#1C1C1E"/>
</svg>
