<svg width="24" height="24" viewBox="0 0 24 24" fill="none" xmlns="http://www.w3.org/2000/svg">
<path fill-rule="evenodd" clip-rule="evenodd" d="M14.6147 15.4131C13.6385 15.4131 12.966 14.9634 12.559 14.3609C12.1759 13.7935 12.0547 13.133 12.0547 12.6824V11.3171C12.0547 10.8665 12.1759 10.2061 12.559 9.63859C12.966 9.03613 13.6385 8.58643 14.6147 8.58643C15.5909 8.58643 16.2633 9.03613 16.6704 9.63859C17.0535 10.2061 17.1747 10.8665 17.1747 11.3171V12.6824C17.1747 13.133 17.0535 13.7935 16.6704 14.3609C16.2633 14.9634 15.5909 15.4131 14.6147 15.4131ZM13.3347 12.6824C13.3347 12.9145 13.4055 13.2781 13.5984 13.5639C13.7673 13.8148 14.0549 14.0478 14.6147 14.0478C15.1745 14.0478 15.462 13.8148 15.631 13.5639C15.8239 13.2781 15.8947 12.9145 15.8947 12.6824V11.3171C15.8947 11.085 15.8239 10.7215 15.631 10.4356C15.462 10.1847 15.1745 9.95176 14.6147 9.95176C14.0549 9.95176 13.7673 10.1847 13.5984 10.4356C13.4314 10.6998 13.3402 11.0047 13.3347 11.3171V12.6824Z" fill="#1C1C1E"/>
<path d="M19.095 13.4932C19.0973 13.4183 19.078 13.3442 19.0395 13.2799H18.7238C18.7059 13.3087 18.6924 13.3401 18.6837 13.3729C18.6625 13.4545 18.6254 13.531 18.5745 13.5982C18.5236 13.6654 18.4599 13.7219 18.3871 13.7644C18.3144 13.8069 18.2339 13.8346 18.1504 13.846C18.0669 13.8573 17.9819 13.852 17.9005 13.8305C17.819 13.8089 17.7426 13.7714 17.6756 13.7202C17.6087 13.6691 17.5525 13.6051 17.5103 13.5322C17.4681 13.4592 17.4407 13.3786 17.4297 13.2951C17.4188 13.2115 17.4244 13.1266 17.4464 13.0452C17.5761 12.5537 17.9908 11.9999 18.6683 11.9999H19.095C19.5183 11.9999 19.8528 12.2303 20.0593 12.5059C20.2658 12.7815 20.375 13.1323 20.375 13.4932C20.375 13.8738 20.253 14.2467 20.0209 14.53L19.3356 15.4132H19.735C19.9047 15.4132 20.0675 15.4806 20.1875 15.6007C20.3076 15.7207 20.375 15.8835 20.375 16.0532C20.375 16.223 20.3076 16.3857 20.1875 16.5058C20.0675 16.6258 19.9047 16.6932 19.735 16.6932H18.0283C17.9085 16.6933 17.7911 16.6598 17.6894 16.5964C17.5877 16.5331 17.5058 16.4425 17.4531 16.3349C17.4004 16.2273 17.3789 16.1071 17.3911 15.9879C17.4034 15.8687 17.4488 15.7553 17.5223 15.6607L19.0156 13.7373L19.031 13.7185C19.0764 13.6524 19.0988 13.5733 19.095 13.4932ZM8.64167 5.17322H7.78833V7.02495C8.78247 7.37823 9.495 8.32629 9.495 9.43989H4.375C4.375 8.32543 5.08753 7.37738 6.08167 7.02495V5.17322H5.22833V3.46655H8.64167V5.17322ZM9.495 19.6372V11.1466H4.375V19.6372C4.375 20.1322 4.77607 20.5332 5.271 20.5332H8.599C9.09393 20.5332 9.495 20.1322 9.495 19.6372Z" fill="#1C1C1E"/>
</svg>
