<svg width="24" height="24" viewBox="0 0 24 24" fill="none" xmlns="http://www.w3.org/2000/svg">
<rect width="24" height="24" rx="2" fill="#FFD60A"/>
<path d="M12.2839 17.5684L9.37783 15.4069C9.2017 15.2788 9.04959 15.1145 8.9215 14.914C8.79341 14.7136 8.70534 14.5016 8.65731 14.2781L7.57654 9.49863L5.46302 11.3239L6.03943 14.0139C6.10348 14.2861 6.05961 14.5342 5.90782 14.7584C5.75603 14.9826 5.54372 15.1187 5.27088 15.1667C4.99805 15.2147 4.74987 15.1667 4.52635 15.0226C4.30283 14.8785 4.16673 14.6703 4.11806 14.3981L3.56566 11.7322C3.4856 11.396 3.50162 11.0639 3.6137 10.736C3.72578 10.4081 3.90991 10.1317 4.16609 9.90692L7.62457 6.83272C7.99283 6.51249 8.42899 6.38023 8.93303 6.43595C9.43707 6.49167 9.92158 6.61592 10.3865 6.8087C10.8989 7.03286 11.4315 7.19297 11.9842 7.28904C12.5369 7.38511 13.0931 7.39312 13.6529 7.31306C14.0372 7.24901 14.4054 7.13693 14.7577 6.97682C15.1099 6.8167 15.4462 6.62457 15.7664 6.4004C15.9906 6.24029 16.2349 6.1724 16.4994 6.19674C16.7639 6.22108 16.9839 6.337 17.1594 6.54451C17.3349 6.75202 17.4031 6.98835 17.364 7.2535C17.325 7.51865 17.1927 7.73064 16.9673 7.88947C16.599 8.14566 16.2227 8.37398 15.8385 8.57444C15.4542 8.77491 15.0459 8.93886 14.6136 9.06632C14.0852 9.21042 13.553 9.28663 13.0169 9.29496C12.4809 9.30329 11.9483 9.24308 11.4193 9.11435L12.0918 12.0925L14.8538 11.5641C15.1099 11.5161 15.3623 11.5199 15.6108 11.5756C15.8593 11.6314 16.0953 11.7396 16.3188 11.9003L19.8493 14.3981C20.0735 14.5583 20.2057 14.7706 20.2461 15.0351C20.2864 15.2996 20.2182 15.5436 20.0415 15.7671C19.8814 15.9753 19.677 16.0995 19.4286 16.1399C19.1801 16.1802 18.944 16.128 18.7205 15.9833L15.3581 13.6296L11.8996 14.3021L13.5328 15.5029C13.821 15.7271 14.0333 16.0073 14.1697 16.3435C14.3062 16.6798 14.342 17.032 14.2773 17.4003L13.6049 21.0989C13.5568 21.3711 13.4207 21.5834 13.1966 21.7359C12.9724 21.8883 12.7242 21.9402 12.452 21.8915C12.1798 21.8428 11.9717 21.7067 11.8276 21.4832C11.6835 21.2597 11.6354 21.0115 11.6835 20.7387L12.2839 17.5684ZM8.15295 5.75194C7.62457 5.75194 7.17241 5.56397 6.79646 5.18802C6.42051 4.81207 6.23221 4.35958 6.23157 3.83056C6.23093 3.30154 6.41923 2.84938 6.79646 2.47407C7.17369 2.09876 7.62585 1.91047 8.15295 1.90919C8.68005 1.90791 9.13253 2.0962 9.5104 2.47407C9.88827 2.85194 10.0762 3.30411 10.0743 3.83056C10.0724 4.35702 9.88443 4.8095 9.5104 5.18802C9.13637 5.56653 8.68389 5.7545 8.15295 5.75194Z" fill="#1C1C1E"/>
</svg>
