<svg width="24" height="24" viewBox="0 0 24 24" fill="none" xmlns="http://www.w3.org/2000/svg">
<rect width="24" height="24" rx="2" fill="#70D7FF"/>
<path fill-rule="evenodd" clip-rule="evenodd" d="M14.6147 15.4132C13.6385 15.4132 12.966 14.9635 12.559 14.3611C12.1759 13.7936 12.0547 13.1331 12.0547 12.6825V11.3172C12.0547 10.8667 12.1759 10.2062 12.559 9.63871C12.966 9.03625 13.6385 8.58655 14.6147 8.58655C15.5909 8.58655 16.2633 9.03625 16.6704 9.63871C17.0535 10.2062 17.1747 10.8667 17.1747 11.3172V12.6825C17.1747 13.1331 17.0535 13.7936 16.6704 14.3611C16.2633 14.9635 15.5909 15.4132 14.6147 15.4132ZM13.3347 12.6825C13.3347 12.9147 13.4055 13.2782 13.5984 13.564C13.7673 13.8149 14.0549 14.0479 14.6147 14.0479C15.1745 14.0479 15.462 13.8149 15.631 13.564C15.8239 13.2782 15.8947 12.9147 15.8947 12.6825V11.3172C15.8947 11.0851 15.8239 10.7216 15.631 10.4357C15.462 10.1848 15.1745 9.95188 14.6147 9.95188C14.0549 9.95188 13.7673 10.1848 13.5984 10.4357C13.4314 10.6999 13.3402 11.0048 13.3347 11.3172V12.6825Z" fill="#1C1C1E"/>
<path d="M19.095 13.4933C19.0973 13.4184 19.078 13.3444 19.0395 13.28H18.7238C18.7059 13.3088 18.6924 13.3402 18.6837 13.373C18.6625 13.4546 18.6254 13.5312 18.5745 13.5984C18.5236 13.6655 18.4599 13.722 18.3871 13.7645C18.3144 13.807 18.2339 13.8348 18.1504 13.8461C18.0669 13.8574 17.9819 13.8522 17.9005 13.8306C17.819 13.809 17.7426 13.7716 17.6756 13.7204C17.6087 13.6692 17.5525 13.6053 17.5103 13.5323C17.4681 13.4593 17.4407 13.3788 17.4297 13.2952C17.4188 13.2116 17.4244 13.1267 17.4464 13.0453C17.5761 12.5538 17.9908 12 18.6683 12H19.095C19.5183 12 19.8528 12.2304 20.0593 12.506C20.2658 12.7817 20.375 13.1324 20.375 13.4933C20.375 13.8739 20.253 14.2468 20.0209 14.5301L19.3356 15.4133H19.735C19.9047 15.4133 20.0675 15.4808 20.1875 15.6008C20.3076 15.7208 20.375 15.8836 20.375 16.0533C20.375 16.2231 20.3076 16.3859 20.1875 16.5059C20.0675 16.6259 19.9047 16.6933 19.735 16.6933H18.0283C17.9085 16.6934 17.7911 16.6599 17.6894 16.5966C17.5877 16.5332 17.5058 16.4426 17.4531 16.335C17.4004 16.2274 17.3789 16.1072 17.3911 15.988C17.4034 15.8688 17.4488 15.7554 17.5223 15.6608L19.0156 13.7374L19.031 13.7186C19.0764 13.6525 19.0988 13.5734 19.095 13.4933ZM8.64167 5.17334H7.78833V7.02507C8.78247 7.37836 9.495 8.32641 9.495 9.44001H4.375C4.375 8.32555 5.08753 7.3775 6.08167 7.02507V5.17334H5.22833V3.46667H8.64167V5.17334ZM9.495 19.6373V11.1467H4.375V19.6373C4.375 20.1323 4.77607 20.5333 5.271 20.5333H8.599C9.09393 20.5333 9.495 20.1323 9.495 19.6373Z" fill="#1C1C1E"/>
</svg>
