<svg width="24" height="24" viewBox="0 0 24 24" fill="none" xmlns="http://www.w3.org/2000/svg">
<rect width="24" height="24" rx="2" fill="#6EE68C"/>
<path fill-rule="evenodd" clip-rule="evenodd" d="M9 13C9 12.347 9.4175 11.791 10 11.585V10H7.5V3H16.5V10H14V11.585C14.5825 11.791 15 12.347 15 13V13.06C15.16 13.073 15.3335 13.101 15.5055 13.1585C15.8158 13.2559 16.0846 13.454 16.2695 13.7215C16.4735 14.019 16.5715 14.3975 16.5715 14.8515C16.5715 15.0315 16.654 15.1735 16.8385 15.292C17.037 15.42 17.3345 15.5 17.6605 15.5C17.987 15.5 18.2845 15.42 18.483 15.292C18.6675 15.1735 18.75 15.0315 18.75 14.851V9.4275C18.3888 9.3198 18.072 9.09835 17.8467 8.79609C17.6215 8.49384 17.4999 8.12694 17.5 7.75V5.75C17.5 5.28587 17.6844 4.84075 18.0126 4.51256C18.3408 4.18437 18.7859 4 19.25 4C19.7141 4 20.1592 4.18437 20.4874 4.51256C20.8156 4.84075 21 5.28587 21 5.75V7.75C21.0001 8.12694 20.8785 8.49384 20.6533 8.79609C20.428 9.09835 20.1112 9.3198 19.75 9.4275V14.851C19.75 15.4365 19.435 15.869 19.0235 16.1335C18.6265 16.3885 18.1285 16.5 17.6605 16.5C17.1925 16.5 16.6955 16.389 16.298 16.1335C15.886 15.8685 15.5715 15.4365 15.5715 14.851C15.5715 14.5385 15.5045 14.3735 15.4445 14.286C15.3875 14.2025 15.307 14.146 15.1905 14.1075C15.1281 14.0871 15.0637 14.0728 14.9985 14.065C14.9817 14.4512 14.8166 14.816 14.5374 15.0834C14.2582 15.3507 13.8866 15.5 13.5 15.5H10.5C10.1022 15.5 9.72064 15.342 9.43934 15.0607C9.15804 14.7794 9 14.3978 9 14H8.75C8.271 14 7.8985 14.065 7.6525 14.2285C7.449 14.364 7.25 14.6235 7.25 15.25C7.25 15.7415 7.083 16.155 6.791 16.4475C6.65406 16.5836 6.49165 16.6915 6.31303 16.7648C6.13441 16.8382 5.94309 16.8756 5.75 16.875C5.3765 16.875 4.9965 16.735 4.709 16.4475C4.417 16.155 4.25 15.7415 4.25 15.25V11.4275C3.88877 11.3198 3.57197 11.0983 3.34674 10.7961C3.12152 10.4938 2.9999 10.1269 3 9.75V7.75C3 7.52019 3.04527 7.29262 3.13321 7.0803C3.22116 6.86798 3.35006 6.67507 3.51256 6.51256C3.67507 6.35006 3.86798 6.22116 4.0803 6.13321C4.29262 6.04526 4.52019 6 4.75 6C4.97981 6 5.20738 6.04526 5.4197 6.13321C5.63202 6.22116 5.82493 6.35006 5.98744 6.51256C6.14994 6.67507 6.27884 6.86798 6.36679 7.0803C6.45474 7.29262 6.5 7.52019 6.5 7.75V9.75C6.5001 10.1269 6.37848 10.4938 6.15326 10.7961C5.92803 11.0983 5.61123 11.3198 5.25 11.4275V15.25C5.25 15.5085 5.333 15.6575 5.416 15.74C5.46006 15.7834 5.51224 15.8176 5.56955 15.8408C5.62686 15.8639 5.68818 15.8756 5.75 15.875C5.81182 15.8756 5.87314 15.8639 5.93045 15.8408C5.98776 15.8176 6.03994 15.7834 6.084 15.74C6.167 15.6575 6.25 15.5085 6.25 15.25C6.25 14.3765 6.551 13.761 7.0975 13.3965C7.6015 13.0605 8.229 13 8.75 13H9ZM12.3415 4.6035L13.4675 6.622L14.228 5.7145H15.5V6.7145H14.695L13.3015 8.3775L12.1965 6.3965L11.605 7.143H8.2195V6.143H11.1215L12.3415 4.6035ZM13 14C13.1326 14 13.2598 13.9473 13.3536 13.8536C13.4473 13.7598 13.5 13.6326 13.5 13.5C13.5 13.3674 13.4473 13.2402 13.3536 13.1464C13.2598 13.0527 13.1326 13 13 13C12.8674 13 12.7402 13.0527 12.6464 13.1464C12.5527 13.2402 12.5 13.3674 12.5 13.5C12.5 13.6326 12.5527 13.7598 12.6464 13.8536C12.7402 13.9473 12.8674 14 13 14ZM11.5 13.5C11.5 13.6326 11.4473 13.7598 11.3536 13.8536C11.2598 13.9473 11.1326 14 11 14C10.8674 14 10.7402 13.9473 10.6464 13.8536C10.5527 13.7598 10.5 13.6326 10.5 13.5C10.5 13.3674 10.5527 13.2402 10.6464 13.1464C10.7402 13.0527 10.8674 13 11 13C11.1326 13 11.2598 13.0527 11.3536 13.1464C11.4473 13.2402 11.5 13.3674 11.5 13.5ZM11 11.5H13V10H11V11.5ZM4 10.1665V9.1665H5.5V10.1665H4Z" fill="#1C1C1E"/>
<path d="M13.5 16C13.675 16 13.8435 15.97 14 15.915V18H19V19H5V18H10V15.915C10.1565 15.97 10.325 16 10.5 16H11V18H13V16H13.5ZM7.25 21C7.44891 21 7.63968 20.921 7.78033 20.7804C7.92098 20.6397 8 20.449 8 20.25C8 20.0511 7.92098 19.8604 7.78033 19.7197C7.63968 19.5791 7.44891 19.5 7.25 19.5C7.05109 19.5 6.86032 19.5791 6.71967 19.7197C6.57902 19.8604 6.5 20.0511 6.5 20.25C6.5 20.449 6.57902 20.6397 6.71967 20.7804C6.86032 20.921 7.05109 21 7.25 21ZM16.75 21C16.9489 21 17.1397 20.921 17.2803 20.7804C17.421 20.6397 17.5 20.449 17.5 20.25C17.5 20.0511 17.421 19.8604 17.2803 19.7197C17.1397 19.5791 16.9489 19.5 16.75 19.5C16.5511 19.5 16.3603 19.5791 16.2197 19.7197C16.079 19.8604 16 20.0511 16 20.25C16 20.449 16.079 20.6397 16.2197 20.7804C16.3603 20.921 16.5511 21 16.75 21Z" fill="#1C1C1E"/>
</svg>
