<svg width="24" height="24" viewBox="0 0 24 24" fill="none" xmlns="http://www.w3.org/2000/svg">
<rect width="24" height="24" rx="2" fill="#002D9B"/>
<path d="M20.4411 16.5587L20.9412 17.5664C21.0793 17.8446 20.9657 18.1822 20.6875 18.3203L18.386 19.4764C17.8217 19.7565 17.1359 19.5184 16.8676 18.9472L14.6606 14.25H9.75C9.19014 14.25 8.71549 13.8383 8.63629 13.2841C7.44491 4.94442 7.51336 5.46248 7.5 5.25C7.5 3.97179 8.56587 2.94252 9.8573 3.00249C11.027 3.05681 11.9684 4.01869 11.9992 5.18925C12.0297 6.34705 11.1853 7.3135 10.0794 7.47578L10.2436 8.62503H14.8125C15.1232 8.62503 15.375 8.87686 15.375 9.18753V10.3125C15.375 10.6232 15.1232 10.875 14.8125 10.875H10.565L10.7257 12H15.375C15.5886 12 15.7978 12.0608 15.9781 12.1753C16.1584 12.2898 16.3024 12.4533 16.3932 12.6466L18.4152 16.95L19.6871 16.3049C19.9654 16.1668 20.3029 16.2804 20.4411 16.5587ZM13.9462 15.375H13.0846C12.8108 17.2806 11.1676 18.75 9.1875 18.75C7.01636 18.75 5.25 16.9836 5.25 14.8125C5.25 13.3533 6.04784 12.077 7.23014 11.3969C7.09964 10.484 6.98953 9.71428 6.89658 9.06484C4.61564 9.97725 3 12.2096 3 14.8125C3 18.2243 5.77569 21 9.1875 21C11.7142 21 13.8916 19.4775 14.8515 17.3018L13.9462 15.375Z" fill="white"/>
</svg>
